# xmcd
# Track frame offsets:
# 183
# 12005
# 25410
# 38105
# 51830
# 64600
# 77130
# 87573
# 97185
# 109500
# 124128
# 135568
# 146625
# 162045
# 175578
# 184465
# 199103
# 209500
# 223570
# 234118
# 246483
# 260178
# 271498
# 287275
#
# Disc length: 3980 seconds
# Revision: 0
# Processed by: cddbd v1.4PL0 Copyright (c) Steve Scherf et al.
# Submitted via: VisiTrax 2.9.5.180 - For more info visit www.synapsa.com
#
DISCID=600f8a18
DTITLE=Don Gibson - Don Gibson collection
DYEAR=1900
DGENRE=
TTITLE0=Oh lonesome me
TTITLE1=There goes m everything
TTITLE2=Snap your fingers
TTITLE3=Touch the morning
TTITLE4=Too soon to know
TTITLE5=Cold cold heart
TTITLE6=Just one time
TTITLE7=Take these chains from my heart
TTITLE8=I'm all wrapped up in you
TTITLE9=You've still got a place in my heart
TTITLE10=Sweet sensuous sensation
TTITLE11=Why you been gone so long
TTITLE12=Sweet dreams
TTITLE13=Release me
TTITLE14=Blue blue day
TTITLE15=I can't stop loving you
TTITLE16=Lonesome number one
TTITLE17=You win again
TTITLE18=Funny familiar forgotten feelings
TTITLE19=Kaw-liga
TTITLE20=A mansion on the hill
TTITLE21=(I'll be) A legend in my time
TTITLE22=Yesterday just passed my way again
TTITLE23=Fan the flame feed the fire
EXTD=
EXTT0=
EXTT1=
EXTT2=
EXTT3=
EXTT4=
EXTT5=
EXTT6=
EXTT7=
EXTT8=
EXTT9=
EXTT10=
EXTT11=
EXTT12=
EXTT13=
EXTT14=
EXTT15=
EXTT16=
EXTT17=
EXTT18=
EXTT19=
EXTT20=
EXTT21=
EXTT22=
EXTT23=
PLAYORDER=
